<?xml version="1.0" encoding="UTF-8"?>
<svg id="Layer_2" data-name="Layer 2" xmlns="http://www.w3.org/2000/svg" viewBox="0 0 85 170.22">
  <defs>
    <style>
      .cls-1 {
        fill: #f8f8f2;
      }

      .cls-2 {
        fill: #fd971f;
      }

      .cls-3 {
        fill: #9e86c8;
      }

      .cls-4 {
        fill: #6c99bb;
      }
    </style>
  </defs>
  <g id="Layer_1-2" data-name="Layer 1">
    <g>
      <path class="cls-2" d="m26.03,87.5l-17.33,10c5.7,9.88,13.91,18.09,23.79,23.79,9.88,5.7,21.09,8.71,32.5,8.71v-20c-16.65,0-31.19-9.05-38.97-22.5Z"/>
      <rect class="cls-1" x="65" width="20" height="170.22"/>
      <path class="cls-3" d="m20,65c0-8.2,2.2-15.88,6.03-22.5l-17.33-10C3,42.38,0,53.59,0,65s3,22.62,8.71,32.5l17.33-10c-3.83-6.62-6.03-14.3-6.03-22.5Z"/>
      <path class="cls-4" d="m65,20V0c-11.41,0-22.62,3-32.5,8.71-9.88,5.7-18.09,13.91-23.79,23.79l17.33,10c7.78-13.45,22.31-22.5,38.97-22.5Z"/>
    </g>
  </g>
</svg>